<?xml version="1.0" encoding="utf-8"?>
<!-- Generator: Adobe Illustrator 25.4.0, SVG Export Plug-In . SVG Version: 6.00 Build 0)  -->
<svg version="1.1" id="Layer_1" xmlns="http://www.w3.org/2000/svg" xmlns:xlink="http://www.w3.org/1999/xlink" x="0px" y="0px"
	 viewBox="0 0 1920 1080" style="enable-background:new 0 0 1920 1080;" xml:space="preserve">
<style type="text/css">
	.st0{fill:#FFFFFF;}
</style>
<g>
	<path class="st0" d="M898.75,555.99V383.93c0-12.92,10.51-23.43,23.43-23.43h75.52c12.92,0,23.43,10.51,23.43,23.43v172.07H898.75z
		"/>
	<path class="st0" d="M997.71,361c12.64,0,22.93,10.29,22.93,22.93v171.57H899.25V383.93c0-12.64,10.29-22.93,22.93-22.93H997.71
		 M997.71,360h-75.52c-13.21,0-23.93,10.71-23.93,23.93v172.57h123.38V383.93C1021.63,370.71,1010.92,360,997.71,360L997.71,360z"/>
</g>
<g>
	<path class="st0" d="M959.62,649.87c-6.72,0-13.12-2.88-17.58-7.9L838.14,524.96c-6.23-7.02-7.71-16.69-3.86-25.25
		c3.85-8.56,12.06-13.88,21.45-13.88h207.78c9.38,0,17.6,5.32,21.45,13.87c3.85,8.56,2.37,18.23-3.87,25.25L977.2,641.97
		C972.74,646.99,966.33,649.87,959.62,649.87z"/>
	<path class="st0" d="M1063.51,486.34c9.18,0,17.23,5.2,20.99,13.58c3.76,8.38,2.31,17.85-3.78,24.71L976.83,641.64
		c-4.36,4.91-10.64,7.73-17.21,7.73c-6.57,0-12.84-2.82-17.21-7.73L838.52,524.63c-6.1-6.87-7.55-16.34-3.78-24.71
		c3.76-8.38,11.81-13.58,20.99-13.58H1063.51 M1063.51,485.34H855.73c-20.71,0-31.71,24.47-17.96,39.96L941.66,642.3
		c4.78,5.38,11.37,8.07,17.96,8.07c6.59,0,13.18-2.69,17.96-8.07l103.89-117.01C1095.22,509.81,1084.22,485.34,1063.51,485.34
		L1063.51,485.34z"/>
</g>
<g>
	<path class="st0" d="M813.36,720.5c-12.67,0-22.97-10.3-22.97-22.97v-4.63c0-12.67,10.3-22.97,22.97-22.97h293.17
		c12.67,0,22.97,10.3,22.97,22.97v4.63c0,12.67-10.3,22.97-22.97,22.97H813.36z"/>
	<path class="st0" d="M1106.53,670.43c12.39,0,22.47,10.08,22.47,22.47v4.63c0,12.39-10.08,22.47-22.47,22.47H813.36
		c-12.39,0-22.47-10.08-22.47-22.47v-4.63c0-12.39,10.08-22.47,22.47-22.47H1106.53 M1106.53,669.43H813.36
		c-12.96,0-23.47,10.51-23.47,23.47v4.63c0,12.96,10.51,23.47,23.47,23.47h293.17c12.96,0,23.47-10.51,23.47-23.47v-4.63
		C1130,679.94,1119.49,669.43,1106.53,669.43L1106.53,669.43z"/>
</g>
</svg>
