<?xml version="1.0" encoding="utf-8"?>
<!-- Generator: Adobe Illustrator 25.4.0, SVG Export Plug-In . SVG Version: 6.00 Build 0)  -->
<svg version="1.1" xmlns="http://www.w3.org/2000/svg" xmlns:xlink="http://www.w3.org/1999/xlink" x="0px" y="0px"
	 viewBox="0 0 1920 1080" style="enable-background:new 0 0 1920 1080;" xml:space="preserve">
<style type="text/css">
	.st0{fill:#FFFFFF;stroke:#FFFFFF;stroke-miterlimit:10;}
	.st1{fill:#FFFFFF;}
	.st2{fill:#EFEFEF;}
</style>
<g id="Layer_2">
	<rect x="-0.5" y="-0.5" class="st0" width="1920" height="1080"/>
</g>
<g id="Layer_1">
	<g id="XMLID_00000155146161276275121390000016902115387163699343_">
		<g>
			<path class="st1" d="M1919.5-0.5v120h-120v-120H1919.5z M1901.77,63.94c6.44,0,6.45-10,0-10
				C1895.34,53.94,1895.33,63.94,1901.77,63.94z"/>
			<rect x="1679.5" y="959.5" class="st2" width="120" height="120"/>
			<rect x="1799.5" y="839.5" class="st2" width="120" height="120"/>
			<rect x="1799.5" y="599.5" class="st2" width="120" height="120"/>
			<rect x="1679.5" y="719.5" class="st2" width="120" height="120"/>
			<rect x="1559.5" y="839.5" class="st2" width="120" height="120"/>
			<rect x="1439.5" y="959.5" class="st2" width="120" height="120"/>
			<rect x="1199.5" y="959.5" class="st2" width="120" height="120"/>
			<rect x="1319.5" y="839.5" class="st2" width="120" height="120"/>
			<rect x="1439.5" y="719.5" class="st2" width="120" height="120"/>
			<rect x="1559.5" y="599.5" class="st2" width="120" height="120"/>
			<rect x="1679.5" y="479.5" class="st2" width="120" height="120"/>
			<rect x="1799.5" y="359.5" class="st2" width="120" height="120"/>
			<rect x="1799.5" y="119.5" class="st2" width="120" height="120"/>
			<rect x="1679.5" y="239.5" class="st2" width="120" height="120"/>
			<rect x="1559.5" y="359.5" class="st2" width="120" height="120"/>
			<rect x="1439.5" y="479.5" class="st2" width="120" height="120"/>
			<rect x="1319.5" y="599.5" class="st2" width="120" height="120"/>
			<rect x="1199.5" y="719.5" class="st2" width="120" height="120"/>
			<rect x="1079.5" y="839.5" class="st2" width="120" height="120"/>
			<rect x="959.5" y="959.5" class="st2" width="120" height="120"/>
			<rect x="719.5" y="959.5" class="st2" width="120" height="120"/>
			<rect x="839.5" y="839.5" class="st2" width="120" height="120"/>
			<rect x="959.5" y="719.5" class="st2" width="120" height="120"/>
			<rect x="1079.5" y="599.5" class="st2" width="120" height="120"/>
			<rect x="1199.5" y="479.5" class="st2" width="120" height="120"/>
			<rect x="1319.5" y="359.5" class="st2" width="120" height="120"/>
			<rect x="1439.5" y="239.5" class="st2" width="120" height="120"/>
			<rect x="1559.5" y="119.5" class="st2" width="120" height="120"/>
			<rect x="1679.5" y="-0.5" class="st2" width="120" height="120"/>
			<rect x="1439.5" y="-0.5" class="st2" width="120" height="120"/>
			<rect x="1319.5" y="119.5" class="st2" width="120" height="120"/>
			<rect x="1199.5" y="239.5" class="st2" width="120" height="120"/>
			<rect x="1079.5" y="359.5" class="st2" width="120" height="120"/>
			<rect x="959.5" y="479.5" class="st2" width="120" height="120"/>
			<rect x="839.5" y="599.5" class="st2" width="120" height="120"/>
			<rect x="719.5" y="719.5" class="st2" width="120" height="120"/>
			<rect x="599.5" y="839.5" class="st2" width="120" height="120"/>
			<rect x="479.5" y="959.5" class="st2" width="120" height="120"/>
			<rect x="-0.5" y="959.5" class="st2" width="120" height="120"/>
			<rect x="239.5" y="959.5" class="st2" width="120" height="120"/>
			<rect x="359.5" y="839.5" class="st2" width="120" height="120"/>
			<rect x="479.5" y="719.5" class="st2" width="120" height="120"/>
			<rect x="599.5" y="599.5" class="st2" width="120" height="120"/>
			<rect x="719.5" y="479.5" class="st2" width="120" height="120"/>
			<rect x="839.5" y="359.5" class="st2" width="120" height="120"/>
			<rect x="959.5" y="239.5" class="st2" width="120" height="120"/>
			<rect x="1079.5" y="119.5" class="st2" width="120" height="120"/>
			<rect x="1199.5" y="-0.5" class="st2" width="120" height="120"/>
			<rect x="959.5" y="-0.5" class="st2" width="120" height="120"/>
			<rect x="839.5" y="119.5" class="st2" width="120" height="120"/>
			<rect x="719.5" y="239.5" class="st2" width="120" height="120"/>
			<rect x="719.5" y="-0.5" class="st2" width="120" height="120"/>
			<rect x="599.5" y="359.5" class="st2" width="120" height="120"/>
			<rect x="599.5" y="119.5" class="st2" width="120" height="120"/>
			<rect x="479.5" y="479.5" class="st2" width="120" height="120"/>
			<rect x="479.5" y="239.5" class="st2" width="120" height="120"/>
			<rect x="479.5" y="-0.5" class="st2" width="120" height="120"/>
			<rect x="359.5" y="599.5" class="st2" width="120" height="120"/>
			<rect x="359.5" y="359.5" class="st2" width="120" height="120"/>
			<rect x="359.5" y="119.5" class="st2" width="120" height="120"/>
			<rect x="239.5" y="719.5" class="st2" width="120" height="120"/>
			<rect x="239.5" y="479.5" class="st2" width="120" height="120"/>
			<rect x="239.5" y="239.5" class="st2" width="120" height="120"/>
			<rect x="239.5" y="-0.5" class="st2" width="120" height="120"/>
			<rect x="119.5" y="839.5" class="st2" width="120" height="120"/>
			<rect x="119.5" y="599.5" class="st2" width="120" height="120"/>
			<rect x="119.5" y="359.5" class="st2" width="120" height="120"/>
			<rect x="119.5" y="119.5" class="st2" width="120" height="120"/>
			<rect x="-0.5" y="719.5" class="st2" width="120" height="120"/>
			<rect x="-0.5" y="479.5" class="st2" width="120" height="120"/>
			<rect x="-0.5" y="239.5" class="st2" width="120" height="120"/>
			<rect x="-0.5" y="-0.5" class="st2" width="120" height="120"/>
		</g>
		<g>
		</g>
	</g>
</g>
</svg>
